<?xml version="1.0" encoding="UTF-8" standalone="no"?>
<!DOCTYPE svg PUBLIC "-//W3C//DTD SVG 1.1//EN"
 "http://www.w3.org/Graphics/SVG/1.1/DTD/svg11.dtd">
<!-- Generated by graphviz version 2.40.1 (20161225.0304)
 -->
<!-- Title: public.material Pages: 1 -->
<svg width="506pt" height="412pt"
 viewBox="0.00 0.00 505.50 412.00" xmlns="http://www.w3.org/2000/svg" xmlns:xlink="http://www.w3.org/1999/xlink">
<g id="graph0" class="graph" transform="scale(1 1) rotate(0) translate(4 408)">
<title>public.material</title>
<polygon fill="#ffffff" stroke="transparent" points="-4,4 -4,-408 501.5,-408 501.5,4 -4,4"/>
<!-- public.material -->
<g id="node1" class="node">
<title>public.material</title>
<polygon fill="#efefef" stroke="transparent" points="78.5,-105.5 78.5,-140.5 305.5,-140.5 305.5,-105.5 78.5,-105.5"/>
<polygon fill="none" stroke="#000000" points="78.5,-105.5 78.5,-140.5 305.5,-140.5 305.5,-105.5 78.5,-105.5"/>
<text text-anchor="start" x="85.3717" y="-118.3" font-family="Arial Bold" font-size="18.00" fill="#000000">public.material</text>
<text text-anchor="start" x="201.3745" y="-118.3" font-family="Arial" font-size="14.00" fill="#000000"> </text>
<text text-anchor="start" x="205.2651" y="-118.3" font-family="Arial" font-size="14.00" fill="#666666">[BASE TABLE]</text>
<polygon fill="none" stroke="#000000" points="78.5,-75.5 78.5,-105.5 305.5,-105.5 305.5,-75.5 78.5,-75.5"/>
<text text-anchor="start" x="85.5" y="-86.9" font-family="Arial" font-size="14.00" fill="#000000">material_id </text>
<text text-anchor="start" x="157.8352" y="-86.9" font-family="Arial" font-size="14.00" fill="#666666">[integer]</text>
<polygon fill="none" stroke="#000000" points="78.5,-45.5 78.5,-75.5 305.5,-75.5 305.5,-45.5 78.5,-45.5"/>
<text text-anchor="start" x="85.5" y="-56.9" font-family="Arial" font-size="14.00" fill="#000000">material_name </text>
<text text-anchor="start" x="181.9544" y="-56.9" font-family="Arial" font-size="14.00" fill="#666666">[varchar]</text>
<polygon fill="none" stroke="#000000" stroke-width="3" points="76.5,-44.5 76.5,-142.5 306.5,-142.5 306.5,-44.5 76.5,-44.5"/>
</g>
<!-- public.product_material -->
<g id="node2" class="node">
<title>public.product_material</title>
<polygon fill="#efefef" stroke="transparent" points="43.5,-325.5 43.5,-360.5 340.5,-360.5 340.5,-325.5 43.5,-325.5"/>
<polygon fill="none" stroke="#000000" points="43.5,-325.5 43.5,-360.5 340.5,-360.5 340.5,-325.5 43.5,-325.5"/>
<text text-anchor="start" x="50.359" y="-338.3" font-family="Arial Bold" font-size="18.00" fill="#000000">public.product_material</text>
<text text-anchor="start" x="236.3872" y="-338.3" font-family="Arial" font-size="14.00" fill="#000000"> </text>
<text text-anchor="start" x="240.2778" y="-338.3" font-family="Arial" font-size="14.00" fill="#666666">[BASE TABLE]</text>
<polygon fill="none" stroke="#000000" points="43.5,-295.5 43.5,-325.5 340.5,-325.5 340.5,-295.5 43.5,-295.5"/>
<text text-anchor="start" x="50.5" y="-306.9" font-family="Arial" font-size="14.00" fill="#000000">product_id </text>
<text text-anchor="start" x="119.744" y="-306.9" font-family="Arial" font-size="14.00" fill="#666666">[integer]</text>
<polygon fill="none" stroke="#000000" points="43.5,-265.5 43.5,-295.5 340.5,-295.5 340.5,-265.5 43.5,-265.5"/>
<text text-anchor="start" x="50.5" y="-276.9" font-family="Arial" font-size="14.00" fill="#000000">material_id </text>
<text text-anchor="start" x="122.8352" y="-276.9" font-family="Arial" font-size="14.00" fill="#666666">[integer]</text>
</g>
<!-- public.product_material&#45;&gt;public.material -->
<g id="edge1" class="edge">
<title>public.product_material:material_id&#45;&gt;public.material:material_id</title>
<path fill="none" stroke="#000000" d="M191.5925,-255.3723C182.369,-208.1836 105.3861,-238.1575 78.5,-187 58.5473,-149.035 35.6111,-90.5 78.5,-90.5"/>
<polygon fill="#000000" stroke="#000000" points="191.6075,-255.5399 188.018,-265.9016 192.0537,-260.52 192.5,-265.5 192.5,-265.5 192.5,-265.5 192.0537,-260.52 196.982,-265.0984 191.6075,-255.5399 191.6075,-255.5399"/>
<text text-anchor="start" x="199.674" y="-275.5" font-family="Arial" font-size="10.00" fill="#000000">FOREIGN KEY (material_id) REFERENCES material(material_id)</text>
</g>
</g>
</svg>
