<?xml version="1.0" encoding="UTF-8" standalone="no"?>
<!DOCTYPE svg PUBLIC "-//W3C//DTD SVG 1.1//EN"
 "http://www.w3.org/Graphics/SVG/1.1/DTD/svg11.dtd">
<!-- Generated by graphviz version 2.40.1 (20161225.0304)
 -->
<!-- Title: public.brand Pages: 1 -->
<svg width="549pt" height="592pt"
 viewBox="0.00 0.00 548.50 592.00" xmlns="http://www.w3.org/2000/svg" xmlns:xlink="http://www.w3.org/1999/xlink">
<g id="graph0" class="graph" transform="scale(1 1) rotate(0) translate(4 588)">
<title>public.brand</title>
<polygon fill="#ffffff" stroke="transparent" points="-4,4 -4,-588 544.5,-588 544.5,4 -4,4"/>
<!-- public.brand -->
<g id="node1" class="node">
<title>public.brand</title>
<polygon fill="#efefef" stroke="transparent" points="282,-105.5 282,-140.5 491,-140.5 491,-105.5 282,-105.5"/>
<polygon fill="none" stroke="#000000" points="282,-105.5 282,-140.5 491,-140.5 491,-105.5 282,-105.5"/>
<text text-anchor="start" x="288.86" y="-118.3" font-family="Arial Bold" font-size="18.00" fill="#000000">public.brand</text>
<text text-anchor="start" x="386.8862" y="-118.3" font-family="Arial" font-size="14.00" fill="#000000"> </text>
<text text-anchor="start" x="390.7768" y="-118.3" font-family="Arial" font-size="14.00" fill="#666666">[BASE TABLE]</text>
<polygon fill="none" stroke="#000000" points="282,-75.5 282,-105.5 491,-105.5 491,-75.5 282,-75.5"/>
<text text-anchor="start" x="289" y="-86.9" font-family="Arial" font-size="14.00" fill="#000000">brand_id </text>
<text text-anchor="start" x="347.3534" y="-86.9" font-family="Arial" font-size="14.00" fill="#666666">[integer]</text>
<polygon fill="none" stroke="#000000" points="282,-45.5 282,-75.5 491,-75.5 491,-45.5 282,-45.5"/>
<text text-anchor="start" x="289" y="-56.9" font-family="Arial" font-size="14.00" fill="#000000">brand_name </text>
<text text-anchor="start" x="371.4726" y="-56.9" font-family="Arial" font-size="14.00" fill="#666666">[varchar]</text>
<polygon fill="none" stroke="#000000" stroke-width="3" points="280,-44.5 280,-142.5 492,-142.5 492,-44.5 280,-44.5"/>
</g>
<!-- public.product -->
<g id="node2" class="node">
<title>public.product</title>
<polygon fill="#efefef" stroke="transparent" points="275,-505.5 275,-540.5 498,-540.5 498,-505.5 275,-505.5"/>
<polygon fill="none" stroke="#000000" points="275,-505.5 275,-540.5 498,-540.5 498,-505.5 275,-505.5"/>
<text text-anchor="start" x="281.8589" y="-518.3" font-family="Arial Bold" font-size="18.00" fill="#000000">public.product</text>
<text text-anchor="start" x="393.8873" y="-518.3" font-family="Arial" font-size="14.00" fill="#000000"> </text>
<text text-anchor="start" x="397.7779" y="-518.3" font-family="Arial" font-size="14.00" fill="#666666">[BASE TABLE]</text>
<polygon fill="none" stroke="#000000" points="275,-475.5 275,-505.5 498,-505.5 498,-475.5 275,-475.5"/>
<text text-anchor="start" x="282" y="-486.9" font-family="Arial" font-size="14.00" fill="#000000">product_id </text>
<text text-anchor="start" x="351.244" y="-486.9" font-family="Arial" font-size="14.00" fill="#666666">[integer]</text>
<polygon fill="none" stroke="#000000" points="275,-445.5 275,-475.5 498,-475.5 498,-445.5 275,-445.5"/>
<text text-anchor="start" x="282" y="-456.9" font-family="Arial" font-size="14.00" fill="#000000">product_name </text>
<text text-anchor="start" x="375.3632" y="-456.9" font-family="Arial" font-size="14.00" fill="#666666">[varchar]</text>
<polygon fill="none" stroke="#000000" points="275,-415.5 275,-445.5 498,-445.5 498,-415.5 275,-415.5"/>
<text text-anchor="start" x="282" y="-426.9" font-family="Arial" font-size="14.00" fill="#000000">department_id </text>
<text text-anchor="start" x="375.3604" y="-426.9" font-family="Arial" font-size="14.00" fill="#666666">[integer]</text>
<polygon fill="none" stroke="#000000" points="275,-385.5 275,-415.5 498,-415.5 498,-385.5 275,-385.5"/>
<text text-anchor="start" x="282" y="-396.9" font-family="Arial" font-size="14.00" fill="#000000">price_usd </text>
<text text-anchor="start" x="346.5708" y="-396.9" font-family="Arial" font-size="14.00" fill="#666666">[integer]</text>
<polygon fill="none" stroke="#000000" points="275,-355.5 275,-385.5 498,-385.5 498,-355.5 275,-355.5"/>
<text text-anchor="start" x="282" y="-366.9" font-family="Arial" font-size="14.00" fill="#000000">product_description </text>
<text text-anchor="start" x="408.0322" y="-366.9" font-family="Arial" font-size="14.00" fill="#666666">[text]</text>
<polygon fill="none" stroke="#000000" points="275,-325.5 275,-355.5 498,-355.5 498,-325.5 275,-325.5"/>
<text text-anchor="start" x="282" y="-336.9" font-family="Arial" font-size="14.00" fill="#000000">image_name </text>
<text text-anchor="start" x="366.7966" y="-336.9" font-family="Arial" font-size="14.00" fill="#666666">[varchar]</text>
<polygon fill="none" stroke="#000000" points="275,-295.5 275,-325.5 498,-325.5 498,-295.5 275,-295.5"/>
<text text-anchor="start" x="282" y="-306.9" font-family="Arial" font-size="14.00" fill="#000000">brand_id </text>
<text text-anchor="start" x="340.3534" y="-306.9" font-family="Arial" font-size="14.00" fill="#666666">[integer]</text>
<polygon fill="none" stroke="#000000" points="275,-265.5 275,-295.5 498,-295.5 498,-265.5 275,-265.5"/>
<text text-anchor="start" x="282" y="-276.9" font-family="Arial" font-size="14.00" fill="#000000">rating </text>
<text text-anchor="start" x="320.8962" y="-276.9" font-family="Arial" font-size="14.00" fill="#666666">[product_rating]</text>
</g>
<!-- public.product&#45;&gt;public.brand -->
<g id="edge1" class="edge">
<title>public.product:brand_id&#45;&gt;public.brand:brand_id</title>
<path fill="none" stroke="#000000" d="M264.8056,-309.6591C177.7972,-294.8888 187.7075,-90.5 282,-90.5"/>
<polygon fill="#000000" stroke="#000000" points="265.0338,-309.6778 274.63,-314.9848 270.0169,-310.0889 275,-310.5 275,-310.5 275,-310.5 270.0169,-310.0889 275.37,-306.0152 265.0338,-309.6778 265.0338,-309.6778"/>
<text text-anchor="start" x="7.1545" y="-320.5" font-family="Arial" font-size="10.00" fill="#000000">FOREIGN KEY (brand_id) REFERENCES brand(brand_id)</text>
</g>
</g>
</svg>
