<?xml version="1.0" encoding="UTF-8" standalone="no"?>
<!DOCTYPE svg PUBLIC "-//W3C//DTD SVG 1.1//EN"
 "http://www.w3.org/Graphics/SVG/1.1/DTD/svg11.dtd">
<!-- Generated by graphviz version 2.40.1 (20161225.0304)
 -->
<!-- Title: public.product Pages: 1 -->
<svg width="856pt" height="809pt"
 viewBox="0.00 0.00 856.00 809.00" xmlns="http://www.w3.org/2000/svg" xmlns:xlink="http://www.w3.org/1999/xlink">
<g id="graph0" class="graph" transform="scale(1 1) rotate(0) translate(4 805)">
<title>public.product</title>
<polygon fill="#ffffff" stroke="transparent" points="-4,4 -4,-805 852,-805 852,4 -4,4"/>
<!-- public.product -->
<g id="node1" class="node">
<title>public.product</title>
<polygon fill="#efefef" stroke="transparent" points="350,-502.5 350,-537.5 573,-537.5 573,-502.5 350,-502.5"/>
<polygon fill="none" stroke="#000000" points="350,-502.5 350,-537.5 573,-537.5 573,-502.5 350,-502.5"/>
<text text-anchor="start" x="356.8589" y="-515.3" font-family="Arial Bold" font-size="18.00" fill="#000000">public.product</text>
<text text-anchor="start" x="468.8873" y="-515.3" font-family="Arial" font-size="14.00" fill="#000000"> </text>
<text text-anchor="start" x="472.7779" y="-515.3" font-family="Arial" font-size="14.00" fill="#666666">[BASE TABLE]</text>
<polygon fill="none" stroke="#000000" points="350,-472.5 350,-502.5 573,-502.5 573,-472.5 350,-472.5"/>
<text text-anchor="start" x="357" y="-483.9" font-family="Arial" font-size="14.00" fill="#000000">product_id </text>
<text text-anchor="start" x="426.244" y="-483.9" font-family="Arial" font-size="14.00" fill="#666666">[integer]</text>
<polygon fill="none" stroke="#000000" points="350,-442.5 350,-472.5 573,-472.5 573,-442.5 350,-442.5"/>
<text text-anchor="start" x="357" y="-453.9" font-family="Arial" font-size="14.00" fill="#000000">product_name </text>
<text text-anchor="start" x="450.3632" y="-453.9" font-family="Arial" font-size="14.00" fill="#666666">[varchar]</text>
<polygon fill="none" stroke="#000000" points="350,-412.5 350,-442.5 573,-442.5 573,-412.5 350,-412.5"/>
<text text-anchor="start" x="357" y="-423.9" font-family="Arial" font-size="14.00" fill="#000000">department_id </text>
<text text-anchor="start" x="450.3604" y="-423.9" font-family="Arial" font-size="14.00" fill="#666666">[integer]</text>
<polygon fill="none" stroke="#000000" points="350,-382.5 350,-412.5 573,-412.5 573,-382.5 350,-382.5"/>
<text text-anchor="start" x="357" y="-393.9" font-family="Arial" font-size="14.00" fill="#000000">price_usd </text>
<text text-anchor="start" x="421.5708" y="-393.9" font-family="Arial" font-size="14.00" fill="#666666">[integer]</text>
<polygon fill="none" stroke="#000000" points="350,-352.5 350,-382.5 573,-382.5 573,-352.5 350,-352.5"/>
<text text-anchor="start" x="357" y="-363.9" font-family="Arial" font-size="14.00" fill="#000000">product_description </text>
<text text-anchor="start" x="483.0322" y="-363.9" font-family="Arial" font-size="14.00" fill="#666666">[text]</text>
<polygon fill="none" stroke="#000000" points="350,-322.5 350,-352.5 573,-352.5 573,-322.5 350,-322.5"/>
<text text-anchor="start" x="357" y="-333.9" font-family="Arial" font-size="14.00" fill="#000000">image_name </text>
<text text-anchor="start" x="441.7966" y="-333.9" font-family="Arial" font-size="14.00" fill="#666666">[varchar]</text>
<polygon fill="none" stroke="#000000" points="350,-292.5 350,-322.5 573,-322.5 573,-292.5 350,-292.5"/>
<text text-anchor="start" x="357" y="-303.9" font-family="Arial" font-size="14.00" fill="#000000">brand_id </text>
<text text-anchor="start" x="415.3534" y="-303.9" font-family="Arial" font-size="14.00" fill="#666666">[integer]</text>
<polygon fill="none" stroke="#000000" points="350,-262.5 350,-292.5 573,-292.5 573,-262.5 350,-262.5"/>
<text text-anchor="start" x="357" y="-273.9" font-family="Arial" font-size="14.00" fill="#000000">rating </text>
<text text-anchor="start" x="395.8962" y="-273.9" font-family="Arial" font-size="14.00" fill="#666666">[product_rating]</text>
<polygon fill="none" stroke="#000000" stroke-width="3" points="348,-261.5 348,-539.5 574,-539.5 574,-261.5 348,-261.5"/>
</g>
<!-- public.department -->
<g id="node3" class="node">
<title>public.department</title>
<polygon fill="#efefef" stroke="transparent" points="167,-102.5 167,-137.5 421,-137.5 421,-102.5 167,-102.5"/>
<polygon fill="none" stroke="#000000" points="167,-102.5 167,-137.5 421,-137.5 421,-102.5 167,-102.5"/>
<text text-anchor="start" x="173.8555" y="-115.3" font-family="Arial Bold" font-size="18.00" fill="#000000">public.department</text>
<text text-anchor="start" x="316.8907" y="-115.3" font-family="Arial" font-size="14.00" fill="#000000"> </text>
<text text-anchor="start" x="320.7813" y="-115.3" font-family="Arial" font-size="14.00" fill="#666666">[BASE TABLE]</text>
<polygon fill="none" stroke="#000000" points="167,-72.5 167,-102.5 421,-102.5 421,-72.5 167,-72.5"/>
<text text-anchor="start" x="174" y="-83.9" font-family="Arial" font-size="14.00" fill="#000000">department_id </text>
<text text-anchor="start" x="267.3604" y="-83.9" font-family="Arial" font-size="14.00" fill="#666666">[integer]</text>
<polygon fill="none" stroke="#000000" points="167,-42.5 167,-72.5 421,-72.5 421,-42.5 167,-42.5"/>
<text text-anchor="start" x="174" y="-53.9" font-family="Arial" font-size="14.00" fill="#000000">department_name </text>
<text text-anchor="start" x="291.4796" y="-53.9" font-family="Arial" font-size="14.00" fill="#666666">[varchar]</text>
</g>
<!-- public.product&#45;&gt;public.department -->
<g id="edge2" class="edge">
<title>public.product:department_id&#45;&gt;public.department:department_id</title>
<path fill="none" stroke="#000000" d="M339.6609,-426.9122C259.935,-417.3608 302.9512,-293.6069 350,-217 368.5158,-186.8517 402.4842,-211.1483 421,-181 442.7477,-145.5895 462.5556,-87.5 421,-87.5"/>
<polygon fill="#000000" stroke="#000000" points="340.0161,-426.9323 349.7445,-431.9927 345.0081,-427.2161 350,-427.5 350,-427.5 350,-427.5 345.0081,-427.2161 350.2555,-423.0073 340.0161,-426.9323 340.0161,-426.9323"/>
<text text-anchor="start" x="6.647" y="-437.5" font-family="Arial" font-size="10.00" fill="#000000">FOREIGN KEY (department_id) REFERENCES department(department_id)</text>
</g>
<!-- public.brand -->
<g id="node4" class="node">
<title>public.brand</title>
<polygon fill="#efefef" stroke="transparent" points="526,-102.5 526,-137.5 735,-137.5 735,-102.5 526,-102.5"/>
<polygon fill="none" stroke="#000000" points="526,-102.5 526,-137.5 735,-137.5 735,-102.5 526,-102.5"/>
<text text-anchor="start" x="532.86" y="-115.3" font-family="Arial Bold" font-size="18.00" fill="#000000">public.brand</text>
<text text-anchor="start" x="630.8862" y="-115.3" font-family="Arial" font-size="14.00" fill="#000000"> </text>
<text text-anchor="start" x="634.7768" y="-115.3" font-family="Arial" font-size="14.00" fill="#666666">[BASE TABLE]</text>
<polygon fill="none" stroke="#000000" points="526,-72.5 526,-102.5 735,-102.5 735,-72.5 526,-72.5"/>
<text text-anchor="start" x="533" y="-83.9" font-family="Arial" font-size="14.00" fill="#000000">brand_id </text>
<text text-anchor="start" x="591.3534" y="-83.9" font-family="Arial" font-size="14.00" fill="#666666">[integer]</text>
<polygon fill="none" stroke="#000000" points="526,-42.5 526,-72.5 735,-72.5 735,-42.5 526,-42.5"/>
<text text-anchor="start" x="533" y="-53.9" font-family="Arial" font-size="14.00" fill="#000000">brand_name </text>
<text text-anchor="start" x="615.4726" y="-53.9" font-family="Arial" font-size="14.00" fill="#666666">[varchar]</text>
</g>
<!-- public.product&#45;&gt;public.brand -->
<g id="edge3" class="edge">
<title>public.product:brand_id&#45;&gt;public.brand:brand_id</title>
<path fill="none" stroke="#000000" d="M583.0544,-306.0104C608.8879,-297.0436 589.0666,-249.5444 573,-217 561.3521,-193.4061 537.6479,-204.5939 526,-181 507.6044,-143.7379 484.4444,-87.5 526,-87.5"/>
<polygon fill="#000000" stroke="#000000" points="582.892,-306.0344 572.3405,-303.0486 577.946,-306.7672 573,-307.5 573,-307.5 573,-307.5 577.946,-306.7672 573.6595,-311.9514 582.892,-306.0344 582.892,-306.0344"/>
<text text-anchor="start" x="580.1545" y="-317.5" font-family="Arial" font-size="10.00" fill="#000000">FOREIGN KEY (brand_id) REFERENCES brand(brand_id)</text>
</g>
<!-- public.product_material -->
<g id="node2" class="node">
<title>public.product_material</title>
<polygon fill="#efefef" stroke="transparent" points="313,-722.5 313,-757.5 610,-757.5 610,-722.5 313,-722.5"/>
<polygon fill="none" stroke="#000000" points="313,-722.5 313,-757.5 610,-757.5 610,-722.5 313,-722.5"/>
<text text-anchor="start" x="319.859" y="-735.3" font-family="Arial Bold" font-size="18.00" fill="#000000">public.product_material</text>
<text text-anchor="start" x="505.8872" y="-735.3" font-family="Arial" font-size="14.00" fill="#000000"> </text>
<text text-anchor="start" x="509.7778" y="-735.3" font-family="Arial" font-size="14.00" fill="#666666">[BASE TABLE]</text>
<polygon fill="none" stroke="#000000" points="313,-692.5 313,-722.5 610,-722.5 610,-692.5 313,-692.5"/>
<text text-anchor="start" x="320" y="-703.9" font-family="Arial" font-size="14.00" fill="#000000">product_id </text>
<text text-anchor="start" x="389.244" y="-703.9" font-family="Arial" font-size="14.00" fill="#666666">[integer]</text>
<polygon fill="none" stroke="#000000" points="313,-662.5 313,-692.5 610,-692.5 610,-662.5 313,-662.5"/>
<text text-anchor="start" x="320" y="-673.9" font-family="Arial" font-size="14.00" fill="#000000">material_id </text>
<text text-anchor="start" x="392.3352" y="-673.9" font-family="Arial" font-size="14.00" fill="#666666">[integer]</text>
</g>
<!-- public.product_material&#45;&gt;public.product -->
<g id="edge1" class="edge">
<title>public.product_material:product_id&#45;&gt;public.product:product_id</title>
<path fill="none" stroke="#000000" d="M302.782,-706.6591C216.604,-691.8888 254.4316,-487.5 350,-487.5"/>
<polygon fill="#000000" stroke="#000000" points="303.0337,-706.6797 312.6309,-711.9848 308.0168,-707.0899 313,-707.5 313,-707.5 313,-707.5 308.0168,-707.0899 313.3691,-703.0152 303.0337,-706.6797 303.0337,-706.6797"/>
<text text-anchor="start" x="21.486" y="-717.5" font-family="Arial" font-size="10.00" fill="#000000">FOREIGN KEY (product_id) REFERENCES product(product_id)</text>
</g>
</g>
</svg>
