<?xml version="1.0" encoding="UTF-8" standalone="no"?>
<!DOCTYPE svg PUBLIC "-//W3C//DTD SVG 1.1//EN"
 "http://www.w3.org/Graphics/SVG/1.1/DTD/svg11.dtd">
<!-- Generated by graphviz version 2.40.1 (20161225.0304)
 -->
<!-- Title: public.department Pages: 1 -->
<svg width="642pt" height="592pt"
 viewBox="0.00 0.00 642.00 592.00" xmlns="http://www.w3.org/2000/svg" xmlns:xlink="http://www.w3.org/1999/xlink">
<g id="graph0" class="graph" transform="scale(1 1) rotate(0) translate(4 588)">
<title>public.department</title>
<polygon fill="#ffffff" stroke="transparent" points="-4,4 -4,-588 638,-588 638,4 -4,4"/>
<!-- public.department -->
<g id="node1" class="node">
<title>public.department</title>
<polygon fill="#efefef" stroke="transparent" points="46,-105.5 46,-140.5 300,-140.5 300,-105.5 46,-105.5"/>
<polygon fill="none" stroke="#000000" points="46,-105.5 46,-140.5 300,-140.5 300,-105.5 46,-105.5"/>
<text text-anchor="start" x="52.8555" y="-118.3" font-family="Arial Bold" font-size="18.00" fill="#000000">public.department</text>
<text text-anchor="start" x="195.8907" y="-118.3" font-family="Arial" font-size="14.00" fill="#000000"> </text>
<text text-anchor="start" x="199.7813" y="-118.3" font-family="Arial" font-size="14.00" fill="#666666">[BASE TABLE]</text>
<polygon fill="none" stroke="#000000" points="46,-75.5 46,-105.5 300,-105.5 300,-75.5 46,-75.5"/>
<text text-anchor="start" x="53" y="-86.9" font-family="Arial" font-size="14.00" fill="#000000">department_id </text>
<text text-anchor="start" x="146.3604" y="-86.9" font-family="Arial" font-size="14.00" fill="#666666">[integer]</text>
<polygon fill="none" stroke="#000000" points="46,-45.5 46,-75.5 300,-75.5 300,-45.5 46,-45.5"/>
<text text-anchor="start" x="53" y="-56.9" font-family="Arial" font-size="14.00" fill="#000000">department_name </text>
<text text-anchor="start" x="170.4796" y="-56.9" font-family="Arial" font-size="14.00" fill="#666666">[varchar]</text>
<polygon fill="none" stroke="#000000" stroke-width="3" points="44.5,-44.5 44.5,-142.5 301.5,-142.5 301.5,-44.5 44.5,-44.5"/>
</g>
<!-- public.product -->
<g id="node2" class="node">
<title>public.product</title>
<polygon fill="#efefef" stroke="transparent" points="61,-505.5 61,-540.5 284,-540.5 284,-505.5 61,-505.5"/>
<polygon fill="none" stroke="#000000" points="61,-505.5 61,-540.5 284,-540.5 284,-505.5 61,-505.5"/>
<text text-anchor="start" x="67.8589" y="-518.3" font-family="Arial Bold" font-size="18.00" fill="#000000">public.product</text>
<text text-anchor="start" x="179.8873" y="-518.3" font-family="Arial" font-size="14.00" fill="#000000"> </text>
<text text-anchor="start" x="183.7779" y="-518.3" font-family="Arial" font-size="14.00" fill="#666666">[BASE TABLE]</text>
<polygon fill="none" stroke="#000000" points="61,-475.5 61,-505.5 284,-505.5 284,-475.5 61,-475.5"/>
<text text-anchor="start" x="68" y="-486.9" font-family="Arial" font-size="14.00" fill="#000000">product_id </text>
<text text-anchor="start" x="137.244" y="-486.9" font-family="Arial" font-size="14.00" fill="#666666">[integer]</text>
<polygon fill="none" stroke="#000000" points="61,-445.5 61,-475.5 284,-475.5 284,-445.5 61,-445.5"/>
<text text-anchor="start" x="68" y="-456.9" font-family="Arial" font-size="14.00" fill="#000000">product_name </text>
<text text-anchor="start" x="161.3632" y="-456.9" font-family="Arial" font-size="14.00" fill="#666666">[varchar]</text>
<polygon fill="none" stroke="#000000" points="61,-415.5 61,-445.5 284,-445.5 284,-415.5 61,-415.5"/>
<text text-anchor="start" x="68" y="-426.9" font-family="Arial" font-size="14.00" fill="#000000">department_id </text>
<text text-anchor="start" x="161.3604" y="-426.9" font-family="Arial" font-size="14.00" fill="#666666">[integer]</text>
<polygon fill="none" stroke="#000000" points="61,-385.5 61,-415.5 284,-415.5 284,-385.5 61,-385.5"/>
<text text-anchor="start" x="68" y="-396.9" font-family="Arial" font-size="14.00" fill="#000000">price_usd </text>
<text text-anchor="start" x="132.5708" y="-396.9" font-family="Arial" font-size="14.00" fill="#666666">[integer]</text>
<polygon fill="none" stroke="#000000" points="61,-355.5 61,-385.5 284,-385.5 284,-355.5 61,-355.5"/>
<text text-anchor="start" x="68" y="-366.9" font-family="Arial" font-size="14.00" fill="#000000">product_description </text>
<text text-anchor="start" x="194.0322" y="-366.9" font-family="Arial" font-size="14.00" fill="#666666">[text]</text>
<polygon fill="none" stroke="#000000" points="61,-325.5 61,-355.5 284,-355.5 284,-325.5 61,-325.5"/>
<text text-anchor="start" x="68" y="-336.9" font-family="Arial" font-size="14.00" fill="#000000">image_name </text>
<text text-anchor="start" x="152.7966" y="-336.9" font-family="Arial" font-size="14.00" fill="#666666">[varchar]</text>
<polygon fill="none" stroke="#000000" points="61,-295.5 61,-325.5 284,-325.5 284,-295.5 61,-295.5"/>
<text text-anchor="start" x="68" y="-306.9" font-family="Arial" font-size="14.00" fill="#000000">brand_id </text>
<text text-anchor="start" x="126.3534" y="-306.9" font-family="Arial" font-size="14.00" fill="#666666">[integer]</text>
<polygon fill="none" stroke="#000000" points="61,-265.5 61,-295.5 284,-295.5 284,-265.5 61,-265.5"/>
<text text-anchor="start" x="68" y="-276.9" font-family="Arial" font-size="14.00" fill="#000000">rating </text>
<text text-anchor="start" x="106.8962" y="-276.9" font-family="Arial" font-size="14.00" fill="#666666">[product_rating]</text>
</g>
<!-- public.product&#45;&gt;public.department -->
<g id="edge1" class="edge">
<title>public.product:department_id&#45;&gt;public.department:department_id</title>
<path fill="none" stroke="#000000" d="M294.244,-429.8824C373.6728,-419.8546 341.788,-290.1864 284,-223 214.2388,-141.8932 115.7612,-268.1068 46,-187 18.0326,-154.4841 3.1111,-90.5 46,-90.5"/>
<polygon fill="#000000" stroke="#000000" points="293.9819,-429.8981 283.7292,-426.0082 288.9909,-430.1991 284,-430.5 284,-430.5 284,-430.5 288.9909,-430.1991 284.2708,-434.9918 293.9819,-429.8981 293.9819,-429.8981"/>
<text text-anchor="start" x="290.647" y="-440.5" font-family="Arial" font-size="10.00" fill="#000000">FOREIGN KEY (department_id) REFERENCES department(department_id)</text>
</g>
</g>
</svg>
