<?xml version="1.0" encoding="UTF-8" standalone="no"?>
<!DOCTYPE svg PUBLIC "-//W3C//DTD SVG 1.1//EN"
 "http://www.w3.org/Graphics/SVG/1.1/DTD/svg11.dtd">
<!-- Generated by graphviz version 2.40.1 (20161225.0304)
 -->
<!-- Title: public.product_material Pages: 1 -->
<svg width="909pt" height="592pt"
 viewBox="0.00 0.00 909.00 592.00" xmlns="http://www.w3.org/2000/svg" xmlns:xlink="http://www.w3.org/1999/xlink">
<g id="graph0" class="graph" transform="scale(1 1) rotate(0) translate(4 588)">
<title>public.product_material</title>
<polygon fill="#ffffff" stroke="transparent" points="-4,4 -4,-588 905,-588 905,4 -4,4"/>
<!-- public.product_material -->
<g id="node1" class="node">
<title>public.product_material</title>
<polygon fill="#efefef" stroke="transparent" points="299,-502.5 299,-537.5 596,-537.5 596,-502.5 299,-502.5"/>
<polygon fill="none" stroke="#000000" points="299,-502.5 299,-537.5 596,-537.5 596,-502.5 299,-502.5"/>
<text text-anchor="start" x="305.859" y="-515.3" font-family="Arial Bold" font-size="18.00" fill="#000000">public.product_material</text>
<text text-anchor="start" x="491.8872" y="-515.3" font-family="Arial" font-size="14.00" fill="#000000"> </text>
<text text-anchor="start" x="495.7778" y="-515.3" font-family="Arial" font-size="14.00" fill="#666666">[BASE TABLE]</text>
<polygon fill="none" stroke="#000000" points="299,-472.5 299,-502.5 596,-502.5 596,-472.5 299,-472.5"/>
<text text-anchor="start" x="306" y="-483.9" font-family="Arial" font-size="14.00" fill="#000000">product_id </text>
<text text-anchor="start" x="375.244" y="-483.9" font-family="Arial" font-size="14.00" fill="#666666">[integer]</text>
<polygon fill="none" stroke="#000000" points="299,-442.5 299,-472.5 596,-472.5 596,-442.5 299,-442.5"/>
<text text-anchor="start" x="306" y="-453.9" font-family="Arial" font-size="14.00" fill="#000000">material_id </text>
<text text-anchor="start" x="378.3352" y="-453.9" font-family="Arial" font-size="14.00" fill="#666666">[integer]</text>
<polygon fill="none" stroke="#000000" stroke-width="3" points="297,-441.5 297,-539.5 597,-539.5 597,-441.5 297,-441.5"/>
</g>
<!-- public.product -->
<g id="node2" class="node">
<title>public.product</title>
<polygon fill="#efefef" stroke="transparent" points="172,-282.5 172,-317.5 395,-317.5 395,-282.5 172,-282.5"/>
<polygon fill="none" stroke="#000000" points="172,-282.5 172,-317.5 395,-317.5 395,-282.5 172,-282.5"/>
<text text-anchor="start" x="178.8589" y="-295.3" font-family="Arial Bold" font-size="18.00" fill="#000000">public.product</text>
<text text-anchor="start" x="290.8873" y="-295.3" font-family="Arial" font-size="14.00" fill="#000000"> </text>
<text text-anchor="start" x="294.7779" y="-295.3" font-family="Arial" font-size="14.00" fill="#666666">[BASE TABLE]</text>
<polygon fill="none" stroke="#000000" points="172,-252.5 172,-282.5 395,-282.5 395,-252.5 172,-252.5"/>
<text text-anchor="start" x="179" y="-263.9" font-family="Arial" font-size="14.00" fill="#000000">product_id </text>
<text text-anchor="start" x="248.244" y="-263.9" font-family="Arial" font-size="14.00" fill="#666666">[integer]</text>
<polygon fill="none" stroke="#000000" points="172,-222.5 172,-252.5 395,-252.5 395,-222.5 172,-222.5"/>
<text text-anchor="start" x="179" y="-233.9" font-family="Arial" font-size="14.00" fill="#000000">product_name </text>
<text text-anchor="start" x="272.3632" y="-233.9" font-family="Arial" font-size="14.00" fill="#666666">[varchar]</text>
<polygon fill="none" stroke="#000000" points="172,-192.5 172,-222.5 395,-222.5 395,-192.5 172,-192.5"/>
<text text-anchor="start" x="179" y="-203.9" font-family="Arial" font-size="14.00" fill="#000000">department_id </text>
<text text-anchor="start" x="272.3604" y="-203.9" font-family="Arial" font-size="14.00" fill="#666666">[integer]</text>
<polygon fill="none" stroke="#000000" points="172,-162.5 172,-192.5 395,-192.5 395,-162.5 172,-162.5"/>
<text text-anchor="start" x="179" y="-173.9" font-family="Arial" font-size="14.00" fill="#000000">price_usd </text>
<text text-anchor="start" x="243.5708" y="-173.9" font-family="Arial" font-size="14.00" fill="#666666">[integer]</text>
<polygon fill="none" stroke="#000000" points="172,-132.5 172,-162.5 395,-162.5 395,-132.5 172,-132.5"/>
<text text-anchor="start" x="179" y="-143.9" font-family="Arial" font-size="14.00" fill="#000000">product_description </text>
<text text-anchor="start" x="305.0322" y="-143.9" font-family="Arial" font-size="14.00" fill="#666666">[text]</text>
<polygon fill="none" stroke="#000000" points="172,-102.5 172,-132.5 395,-132.5 395,-102.5 172,-102.5"/>
<text text-anchor="start" x="179" y="-113.9" font-family="Arial" font-size="14.00" fill="#000000">image_name </text>
<text text-anchor="start" x="263.7966" y="-113.9" font-family="Arial" font-size="14.00" fill="#666666">[varchar]</text>
<polygon fill="none" stroke="#000000" points="172,-72.5 172,-102.5 395,-102.5 395,-72.5 172,-72.5"/>
<text text-anchor="start" x="179" y="-83.9" font-family="Arial" font-size="14.00" fill="#000000">brand_id </text>
<text text-anchor="start" x="237.3534" y="-83.9" font-family="Arial" font-size="14.00" fill="#666666">[integer]</text>
<polygon fill="none" stroke="#000000" points="172,-42.5 172,-72.5 395,-72.5 395,-42.5 172,-42.5"/>
<text text-anchor="start" x="179" y="-53.9" font-family="Arial" font-size="14.00" fill="#000000">rating </text>
<text text-anchor="start" x="217.8962" y="-53.9" font-family="Arial" font-size="14.00" fill="#666666">[product_rating]</text>
</g>
<!-- public.product_material&#45;&gt;public.product -->
<g id="edge1" class="edge">
<title>public.product_material:product_id&#45;&gt;public.product:product_id</title>
<path fill="none" stroke="#000000" d="M288.8138,-485.9328C262.2124,-476.5137 278.327,-426.8312 299,-397 324.9553,-359.5465 369.0447,-398.4535 395,-361 418.6698,-326.8444 436.5556,-267.5 395,-267.5"/>
<polygon fill="#000000" stroke="#000000" points="289.1163,-485.9793 298.3157,-491.9477 294.0581,-486.7396 299,-487.5 299,-487.5 299,-487.5 294.0581,-486.7396 299.6843,-483.0523 289.1163,-485.9793 289.1163,-485.9793"/>
<text text-anchor="start" x="7.486" y="-497.5" font-family="Arial" font-size="10.00" fill="#000000">FOREIGN KEY (product_id) REFERENCES product(product_id)</text>
</g>
<!-- public.material -->
<g id="node3" class="node">
<title>public.material</title>
<polygon fill="#efefef" stroke="transparent" points="499,-192.5 499,-227.5 726,-227.5 726,-192.5 499,-192.5"/>
<polygon fill="none" stroke="#000000" points="499,-192.5 499,-227.5 726,-227.5 726,-192.5 499,-192.5"/>
<text text-anchor="start" x="505.8717" y="-205.3" font-family="Arial Bold" font-size="18.00" fill="#000000">public.material</text>
<text text-anchor="start" x="621.8745" y="-205.3" font-family="Arial" font-size="14.00" fill="#000000"> </text>
<text text-anchor="start" x="625.7651" y="-205.3" font-family="Arial" font-size="14.00" fill="#666666">[BASE TABLE]</text>
<polygon fill="none" stroke="#000000" points="499,-162.5 499,-192.5 726,-192.5 726,-162.5 499,-162.5"/>
<text text-anchor="start" x="506" y="-173.9" font-family="Arial" font-size="14.00" fill="#000000">material_id </text>
<text text-anchor="start" x="578.3352" y="-173.9" font-family="Arial" font-size="14.00" fill="#666666">[integer]</text>
<polygon fill="none" stroke="#000000" points="499,-132.5 499,-162.5 726,-162.5 726,-132.5 499,-132.5"/>
<text text-anchor="start" x="506" y="-143.9" font-family="Arial" font-size="14.00" fill="#000000">material_name </text>
<text text-anchor="start" x="602.4544" y="-143.9" font-family="Arial" font-size="14.00" fill="#666666">[varchar]</text>
</g>
<!-- public.product_material&#45;&gt;public.material -->
<g id="edge2" class="edge">
<title>public.product_material:material_id&#45;&gt;public.material:material_id</title>
<path fill="none" stroke="#000000" d="M605.8329,-454.8672C617.166,-446.259 603.242,-418.2788 596,-397 573.2303,-330.0963 521.7697,-337.9037 499,-271 485.6113,-231.6604 457.4444,-177.5 499,-177.5"/>
<polygon fill="#000000" stroke="#000000" points="605.6597,-454.9135 594.8361,-453.1531 600.8299,-456.2068 596,-457.5 596,-457.5 596,-457.5 600.8299,-456.2068 597.1639,-461.8469 605.6597,-454.9135 605.6597,-454.9135"/>
<text text-anchor="start" x="603.174" y="-467.5" font-family="Arial" font-size="10.00" fill="#000000">FOREIGN KEY (material_id) REFERENCES material(material_id)</text>
</g>
</g>
</svg>
