<?xml version="1.0" encoding="UTF-8" standalone="no"?>
<!DOCTYPE svg PUBLIC "-//W3C//DTD SVG 1.1//EN"
 "http://www.w3.org/Graphics/SVG/1.1/DTD/svg11.dtd">
<!-- Generated by graphviz version 2.40.1 (20161225.0304)
 -->
<!-- Title: ecomm_demo Pages: 1 -->
<svg width="1087pt" height="803pt"
 viewBox="0.00 0.00 1087.00 803.00" xmlns="http://www.w3.org/2000/svg" xmlns:xlink="http://www.w3.org/1999/xlink">
<g id="graph0" class="graph" transform="scale(1 1) rotate(0) translate(4 799)">
<title>ecomm_demo</title>
<polygon fill="#ffffff" stroke="transparent" points="-4,4 -4,-799 1083,-799 1083,4 -4,4"/>
<!-- public.product -->
<g id="node1" class="node">
<title>public.product</title>
<polygon fill="#efefef" stroke="transparent" points="350,-499.5 350,-534.5 573,-534.5 573,-499.5 350,-499.5"/>
<polygon fill="none" stroke="#000000" points="350,-499.5 350,-534.5 573,-534.5 573,-499.5 350,-499.5"/>
<text text-anchor="start" x="356.8589" y="-512.3" font-family="Arial Bold" font-size="18.00" fill="#000000">public.product</text>
<text text-anchor="start" x="468.8873" y="-512.3" font-family="Arial" font-size="14.00" fill="#000000"> </text>
<text text-anchor="start" x="472.7779" y="-512.3" font-family="Arial" font-size="14.00" fill="#666666">[BASE TABLE]</text>
<polygon fill="none" stroke="#000000" points="350,-469.5 350,-499.5 573,-499.5 573,-469.5 350,-469.5"/>
<text text-anchor="start" x="357" y="-480.9" font-family="Arial" font-size="14.00" fill="#000000">product_id </text>
<text text-anchor="start" x="426.244" y="-480.9" font-family="Arial" font-size="14.00" fill="#666666">[integer]</text>
<polygon fill="none" stroke="#000000" points="350,-439.5 350,-469.5 573,-469.5 573,-439.5 350,-439.5"/>
<text text-anchor="start" x="357" y="-450.9" font-family="Arial" font-size="14.00" fill="#000000">product_name </text>
<text text-anchor="start" x="450.3632" y="-450.9" font-family="Arial" font-size="14.00" fill="#666666">[varchar]</text>
<polygon fill="none" stroke="#000000" points="350,-409.5 350,-439.5 573,-439.5 573,-409.5 350,-409.5"/>
<text text-anchor="start" x="357" y="-420.9" font-family="Arial" font-size="14.00" fill="#000000">department_id </text>
<text text-anchor="start" x="450.3604" y="-420.9" font-family="Arial" font-size="14.00" fill="#666666">[integer]</text>
<polygon fill="none" stroke="#000000" points="350,-379.5 350,-409.5 573,-409.5 573,-379.5 350,-379.5"/>
<text text-anchor="start" x="357" y="-390.9" font-family="Arial" font-size="14.00" fill="#000000">price_usd </text>
<text text-anchor="start" x="421.5708" y="-390.9" font-family="Arial" font-size="14.00" fill="#666666">[integer]</text>
<polygon fill="none" stroke="#000000" points="350,-349.5 350,-379.5 573,-379.5 573,-349.5 350,-349.5"/>
<text text-anchor="start" x="357" y="-360.9" font-family="Arial" font-size="14.00" fill="#000000">product_description </text>
<text text-anchor="start" x="483.0322" y="-360.9" font-family="Arial" font-size="14.00" fill="#666666">[text]</text>
<polygon fill="none" stroke="#000000" points="350,-319.5 350,-349.5 573,-349.5 573,-319.5 350,-319.5"/>
<text text-anchor="start" x="357" y="-330.9" font-family="Arial" font-size="14.00" fill="#000000">image_name </text>
<text text-anchor="start" x="441.7966" y="-330.9" font-family="Arial" font-size="14.00" fill="#666666">[varchar]</text>
<polygon fill="none" stroke="#000000" points="350,-289.5 350,-319.5 573,-319.5 573,-289.5 350,-289.5"/>
<text text-anchor="start" x="357" y="-300.9" font-family="Arial" font-size="14.00" fill="#000000">brand_id </text>
<text text-anchor="start" x="415.3534" y="-300.9" font-family="Arial" font-size="14.00" fill="#666666">[integer]</text>
<polygon fill="none" stroke="#000000" points="350,-259.5 350,-289.5 573,-289.5 573,-259.5 350,-259.5"/>
<text text-anchor="start" x="357" y="-270.9" font-family="Arial" font-size="14.00" fill="#000000">rating </text>
<text text-anchor="start" x="395.8962" y="-270.9" font-family="Arial" font-size="14.00" fill="#666666">[product_rating]</text>
</g>
<!-- public.department -->
<g id="node2" class="node">
<title>public.department</title>
<polygon fill="#efefef" stroke="transparent" points="167,-102.5 167,-137.5 421,-137.5 421,-102.5 167,-102.5"/>
<polygon fill="none" stroke="#000000" points="167,-102.5 167,-137.5 421,-137.5 421,-102.5 167,-102.5"/>
<text text-anchor="start" x="173.8555" y="-115.3" font-family="Arial Bold" font-size="18.00" fill="#000000">public.department</text>
<text text-anchor="start" x="316.8907" y="-115.3" font-family="Arial" font-size="14.00" fill="#000000"> </text>
<text text-anchor="start" x="320.7813" y="-115.3" font-family="Arial" font-size="14.00" fill="#666666">[BASE TABLE]</text>
<polygon fill="none" stroke="#000000" points="167,-72.5 167,-102.5 421,-102.5 421,-72.5 167,-72.5"/>
<text text-anchor="start" x="174" y="-83.9" font-family="Arial" font-size="14.00" fill="#000000">department_id </text>
<text text-anchor="start" x="267.3604" y="-83.9" font-family="Arial" font-size="14.00" fill="#666666">[integer]</text>
<polygon fill="none" stroke="#000000" points="167,-42.5 167,-72.5 421,-72.5 421,-42.5 167,-42.5"/>
<text text-anchor="start" x="174" y="-53.9" font-family="Arial" font-size="14.00" fill="#000000">department_name </text>
<text text-anchor="start" x="291.4796" y="-53.9" font-family="Arial" font-size="14.00" fill="#666666">[varchar]</text>
</g>
<!-- public.product&#45;&gt;public.department -->
<g id="edge1" class="edge">
<title>public.product:department_id&#45;&gt;public.department:department_id</title>
<path fill="none" stroke="#000000" d="M339.8082,-423.9206C261.2186,-414.5053 303.6218,-292.5151 350,-217 368.5158,-186.8517 402.4842,-211.1483 421,-181 442.7477,-145.5895 462.5556,-87.5 421,-87.5"/>
<polygon fill="#000000" stroke="#000000" points="340.0161,-423.9323 349.7445,-428.9927 345.0081,-424.2161 350,-424.5 350,-424.5 350,-424.5 345.0081,-424.2161 350.2555,-420.0073 340.0161,-423.9323 340.0161,-423.9323"/>
<text text-anchor="start" x="6.647" y="-434.5" font-family="Arial" font-size="10.00" fill="#000000">FOREIGN KEY (department_id) REFERENCES department(department_id)</text>
</g>
<!-- public.brand -->
<g id="node4" class="node">
<title>public.brand</title>
<polygon fill="#efefef" stroke="transparent" points="526,-102.5 526,-137.5 735,-137.5 735,-102.5 526,-102.5"/>
<polygon fill="none" stroke="#000000" points="526,-102.5 526,-137.5 735,-137.5 735,-102.5 526,-102.5"/>
<text text-anchor="start" x="532.86" y="-115.3" font-family="Arial Bold" font-size="18.00" fill="#000000">public.brand</text>
<text text-anchor="start" x="630.8862" y="-115.3" font-family="Arial" font-size="14.00" fill="#000000"> </text>
<text text-anchor="start" x="634.7768" y="-115.3" font-family="Arial" font-size="14.00" fill="#666666">[BASE TABLE]</text>
<polygon fill="none" stroke="#000000" points="526,-72.5 526,-102.5 735,-102.5 735,-72.5 526,-72.5"/>
<text text-anchor="start" x="533" y="-83.9" font-family="Arial" font-size="14.00" fill="#000000">brand_id </text>
<text text-anchor="start" x="591.3534" y="-83.9" font-family="Arial" font-size="14.00" fill="#666666">[integer]</text>
<polygon fill="none" stroke="#000000" points="526,-42.5 526,-72.5 735,-72.5 735,-42.5 526,-42.5"/>
<text text-anchor="start" x="533" y="-53.9" font-family="Arial" font-size="14.00" fill="#000000">brand_name </text>
<text text-anchor="start" x="615.4726" y="-53.9" font-family="Arial" font-size="14.00" fill="#666666">[varchar]</text>
</g>
<!-- public.product&#45;&gt;public.brand -->
<g id="edge2" class="edge">
<title>public.product:brand_id&#45;&gt;public.brand:brand_id</title>
<path fill="none" stroke="#000000" d="M583.043,-302.9451C607.5324,-293.9929 588.4667,-248.3294 573,-217 561.3521,-193.4061 537.6479,-204.5939 526,-181 507.6044,-143.7379 484.4444,-87.5 526,-87.5"/>
<polygon fill="#000000" stroke="#000000" points="582.8823,-302.9699 572.3115,-300.053 577.9411,-303.735 573,-304.5 573,-304.5 573,-304.5 577.9411,-303.735 573.6885,-308.947 582.8823,-302.9699 582.8823,-302.9699"/>
<text text-anchor="start" x="580.1545" y="-288.5" font-family="Arial" font-size="10.00" fill="#000000">FOREIGN KEY (brand_id) REFERENCES brand(brand_id)</text>
</g>
<!-- public.material -->
<g id="node3" class="node">
<title>public.material</title>
<polygon fill="#efefef" stroke="transparent" points="677,-409.5 677,-444.5 904,-444.5 904,-409.5 677,-409.5"/>
<polygon fill="none" stroke="#000000" points="677,-409.5 677,-444.5 904,-444.5 904,-409.5 677,-409.5"/>
<text text-anchor="start" x="683.8717" y="-422.3" font-family="Arial Bold" font-size="18.00" fill="#000000">public.material</text>
<text text-anchor="start" x="799.8745" y="-422.3" font-family="Arial" font-size="14.00" fill="#000000"> </text>
<text text-anchor="start" x="803.7651" y="-422.3" font-family="Arial" font-size="14.00" fill="#666666">[BASE TABLE]</text>
<polygon fill="none" stroke="#000000" points="677,-379.5 677,-409.5 904,-409.5 904,-379.5 677,-379.5"/>
<text text-anchor="start" x="684" y="-390.9" font-family="Arial" font-size="14.00" fill="#000000">material_id </text>
<text text-anchor="start" x="756.3352" y="-390.9" font-family="Arial" font-size="14.00" fill="#666666">[integer]</text>
<polygon fill="none" stroke="#000000" points="677,-349.5 677,-379.5 904,-379.5 904,-349.5 677,-349.5"/>
<text text-anchor="start" x="684" y="-360.9" font-family="Arial" font-size="14.00" fill="#000000">material_name </text>
<text text-anchor="start" x="780.4544" y="-360.9" font-family="Arial" font-size="14.00" fill="#666666">[varchar]</text>
</g>
<!-- public.product_material -->
<g id="node5" class="node">
<title>public.product_material</title>
<polygon fill="#efefef" stroke="transparent" points="477,-716.5 477,-751.5 774,-751.5 774,-716.5 477,-716.5"/>
<polygon fill="none" stroke="#000000" points="477,-716.5 477,-751.5 774,-751.5 774,-716.5 477,-716.5"/>
<text text-anchor="start" x="483.859" y="-729.3" font-family="Arial Bold" font-size="18.00" fill="#000000">public.product_material</text>
<text text-anchor="start" x="669.8872" y="-729.3" font-family="Arial" font-size="14.00" fill="#000000"> </text>
<text text-anchor="start" x="673.7778" y="-729.3" font-family="Arial" font-size="14.00" fill="#666666">[BASE TABLE]</text>
<polygon fill="none" stroke="#000000" points="477,-686.5 477,-716.5 774,-716.5 774,-686.5 477,-686.5"/>
<text text-anchor="start" x="484" y="-697.9" font-family="Arial" font-size="14.00" fill="#000000">product_id </text>
<text text-anchor="start" x="553.244" y="-697.9" font-family="Arial" font-size="14.00" fill="#666666">[integer]</text>
<polygon fill="none" stroke="#000000" points="477,-656.5 477,-686.5 774,-686.5 774,-656.5 477,-656.5"/>
<text text-anchor="start" x="484" y="-667.9" font-family="Arial" font-size="14.00" fill="#000000">material_id </text>
<text text-anchor="start" x="556.3352" y="-667.9" font-family="Arial" font-size="14.00" fill="#666666">[integer]</text>
</g>
<!-- public.product_material&#45;&gt;public.product -->
<g id="edge3" class="edge">
<title>public.product_material:product_id&#45;&gt;public.product:product_id</title>
<path fill="none" stroke="#000000" d="M466.8198,-699.8643C441.5668,-690.4624 457.0988,-642.7175 477,-614 502.9553,-576.5465 547.0447,-615.4535 573,-578 596.6698,-543.8444 614.5556,-484.5 573,-484.5"/>
<polygon fill="#000000" stroke="#000000" points="467.1266,-699.9135 476.2861,-705.943 472.0633,-700.7068 477,-701.5 477,-701.5 477,-701.5 472.0633,-700.7068 477.7139,-697.057 467.1266,-699.9135 467.1266,-699.9135"/>
<text text-anchor="start" x="185.486" y="-711.5" font-family="Arial" font-size="10.00" fill="#000000">FOREIGN KEY (product_id) REFERENCES product(product_id)</text>
</g>
<!-- public.product_material&#45;&gt;public.material -->
<g id="edge4" class="edge">
<title>public.product_material:material_id&#45;&gt;public.material:material_id</title>
<path fill="none" stroke="#000000" d="M783.641,-668.7636C793.8696,-660.3199 780.8185,-634.0347 774,-614 751.2303,-547.0963 699.7697,-554.9037 677,-488 663.6113,-448.6604 635.4444,-394.5 677,-394.5"/>
<polygon fill="#000000" stroke="#000000" points="783.62,-668.7695 772.7713,-667.171 778.81,-670.1347 774,-671.5 774,-671.5 774,-671.5 778.81,-670.1347 775.2287,-675.829 783.62,-668.7695 783.62,-668.7695"/>
<text text-anchor="start" x="781.174" y="-681.5" font-family="Arial" font-size="10.00" fill="#000000">FOREIGN KEY (material_id) REFERENCES material(material_id)</text>
</g>
</g>
</svg>
